<svg aria-hidden="true" style="position: absolute; width: 0; height: 0; overflow: hidden;" version="1.1" xmlns="http://www.w3.org/2000/svg" xmlns:xlink="http://www.w3.org/1999/xlink">
<defs>
<symbol id="icon-Arrow2" viewBox="0 0 32 32">
<path d="M1.062 17.414c-0.781-0.781-0.781-2.047 0-2.828l12.728-12.728c0.781-0.781 2.047-0.781 2.828 0s0.781 2.047 0 2.828l-11.314 11.314 11.314 11.314c0.781 0.781 0.781 2.047 0 2.828s-2.047 0.781-2.828 0l-12.728-12.728zM36 18h-33.524v-4h33.524v4z"></path>
</symbol>
<symbol id="atom-icon" viewBox="0 0 32 32">
<path d="M16.067 0.072c-1.145 0-2.215 0.522-3.127 1.376s-1.692 2.044-2.343 3.485c-0.136 0.302-0.267 0.616-0.391 0.939-0.336-0.053-0.673-0.097-1.011-0.131-0.393-0.039-0.777-0.064-1.15-0.072-1.12-0.027-2.143 0.087-3.040 0.359-1.196 0.363-2.182 1.028-2.755 2.020s-0.656 2.179-0.372 3.396c0.284 1.217 0.924 2.488 1.847 3.772 0.194 0.269 0.401 0.539 0.619 0.81-0.214 0.264-0.42 0.533-0.618 0.809-0.923 1.284-1.563 2.555-1.847 3.772s-0.201 2.404 0.372 3.396c0.573 0.992 1.559 1.658 2.755 2.020s2.616 0.444 4.19 0.287c0.33-0.033 0.667-0.077 1.010-0.131 0.122 0.317 0.252 0.631 0.392 0.941 0.651 1.441 1.431 2.631 2.343 3.485s1.982 1.376 3.127 1.376c1.145 0 2.215-0.522 3.127-1.376s1.692-2.044 2.343-3.485c0.14-0.31 0.27-0.624 0.392-0.941 0.342 0.054 0.679 0.098 1.009 0.131 1.573 0.157 2.994 0.076 4.19-0.287s2.182-1.028 2.755-2.020c0.573-0.992 0.656-2.179 0.372-3.396s-0.924-2.488-1.847-3.772c-0.198-0.275-0.404-0.545-0.618-0.809 0.214-0.264 0.42-0.534 0.619-0.809 0.923-1.284 1.563-2.555 1.847-3.772s0.201-2.404-0.372-3.396c-0.573-0.992-1.559-1.658-2.755-2.020-0.897-0.272-1.92-0.385-3.039-0.359-0.373 0.009-0.757 0.033-1.15 0.072-0.33 0.033-0.667 0.077-1.010 0.131-0.122-0.317-0.252-0.63-0.391-0.939-0.651-1.441-1.431-2.631-2.343-3.485s-1.982-1.376-3.127-1.376l0 0zM16.067 1.346c0.764 0 1.513 0.336 2.256 1.032s1.452 1.749 2.053 3.080c0.098 0.217 0.191 0.436 0.279 0.657-1.46 0.325-3.007 0.823-4.588 1.488-1.58-0.665-3.127-1.163-4.587-1.488 0.090-0.226 0.183-0.446 0.279-0.658 0.601-1.331 1.31-2.384 2.053-3.080s1.492-1.031 2.256-1.031l-0 0zM7.64 6.941c0.123-0.001 0.248-0 0.375 0.002 0.338 0.008 0.69 0.029 1.053 0.066 0.232 0.023 0.47 0.053 0.711 0.088-0.449 1.427-0.791 3.015-1.005 4.717-1.367 1.036-2.572 2.127-3.583 3.229-0.148-0.187-0.292-0.378-0.431-0.571-0.852-1.185-1.409-2.326-1.641-3.318s-0.147-1.808 0.235-2.469c0.382-0.662 1.047-1.143 2.021-1.438 0.639-0.194 1.405-0.298 2.266-0.306l0 0zM24.492 6.941c0.861 0.008 1.626 0.112 2.266 0.306 0.974 0.295 1.639 0.776 2.021 1.438s0.466 1.478 0.235 2.469c-0.231 0.991-0.789 2.132-1.641 3.318-0.14 0.194-0.283 0.384-0.431 0.571-1.011-1.102-2.216-2.192-3.582-3.229-0.214-1.702-0.556-3.29-1.005-4.718 0.241-0.035 0.478-0.065 0.71-0.088 0.35-0.035 0.701-0.057 1.053-0.066 0.125-0.003 0.25-0.004 0.375-0.003v0zM21.089 7.326c0.339 1.053 0.619 2.214 0.829 3.457-0.676-0.457-1.369-0.89-2.076-1.298s-1.427-0.791-2.161-1.148c1.181-0.44 2.327-0.778 3.408-1.010v-0zM11.044 7.326c1.081 0.233 2.226 0.57 3.407 1.010-0.734 0.357-1.454 0.74-2.161 1.148s-1.399 0.84-2.075 1.297c0.209-1.243 0.49-2.404 0.829-3.456zM16.066 8.994c1.037 0.457 2.089 0.989 3.138 1.595s2.037 1.252 2.951 1.921c0.122 1.127 0.188 2.304 0.188 3.516s-0.066 2.388-0.188 3.514c-0.915 0.669-1.902 1.315-2.951 1.921s-2.102 1.138-3.139 1.595c-1.037-0.457-2.090-0.989-3.139-1.595s-2.036-1.251-2.95-1.92c-0.122-1.127-0.188-2.304-0.188-3.515s0.066-2.39 0.188-3.517c0.915-0.669 1.901-1.315 2.95-1.921s2.102-1.137 3.138-1.594v-0zM16.152 10.911l-3.648 2.251 3.648 2.251 3.648-2.251-3.648-2.251zM8.601 13.579c-0.057 0.814-0.086 1.63-0.086 2.447 0 0.832 0.029 1.648 0.086 2.445-0.972-0.802-1.837-1.626-2.579-2.446 0.742-0.82 1.607-1.643 2.579-2.446zM23.533 13.58c0.971 0.802 1.836 1.626 2.578 2.445-0.742 0.82-1.607 1.643-2.578 2.445 0.057-0.814 0.086-1.629 0.086-2.445 0-0.832-0.029-1.649-0.086-2.446h0zM11.683 14.152v4.445l3.831 2.364v-4.445l-3.831-2.365zM20.619 14.154l-3.83 2.364v4.443l3.83-2.364v-4.443h-0zM5.19 17.007c1.011 1.103 2.216 2.193 3.583 3.229 0.214 1.701 0.556 3.29 1.005 4.716-0.241 0.035-0.478 0.064-0.71 0.088-1.453 0.145-2.72 0.057-3.694-0.238s-1.639-0.776-2.021-1.438c-0.382-0.662-0.466-1.478-0.235-2.469s0.789-2.132 1.641-3.318c0.139-0.193 0.283-0.384 0.43-0.57zM26.942 17.007c0.15 0.191 0.295 0.381 0.43 0.57 0.852 1.185 1.409 2.326 1.641 3.318s0.147 1.808-0.235 2.469c-0.382 0.662-1.047 1.143-2.021 1.438s-2.241 0.383-3.693 0.238c-0.237-0.024-0.473-0.053-0.709-0.088 0.449-1.427 0.791-3.016 1.005-4.718 1.366-1.036 2.571-2.126 3.582-3.228v0zM21.918 21.267c-0.209 1.243-0.49 2.404-0.829 3.457-1.081-0.233-2.227-0.571-3.408-1.011 0.734-0.357 1.455-0.741 2.161-1.149s1.399-0.841 2.075-1.297h-0zM10.216 21.268c0.676 0.456 1.368 0.889 2.074 1.297s1.428 0.791 2.161 1.149c-1.181 0.44-2.326 0.778-3.407 1.010-0.339-1.052-0.619-2.213-0.829-3.456zM16.104 21.326l0.046 0.029 0.046-0.029h-0.093zM16.066 24.447c1.581 0.665 3.128 1.163 4.588 1.488-0.088 0.222-0.181 0.442-0.279 0.659-0.601 1.33-1.31 2.384-2.053 3.080s-1.492 1.032-2.256 1.032c-0.764 0-1.513-0.336-2.256-1.032s-1.452-1.749-2.053-3.080c-0.098-0.218-0.191-0.438-0.279-0.659 1.46-0.325 3.007-0.823 4.588-1.488h-0z"></path>
</symbol>
<symbol id="cosmetic-icon" viewBox="0 0 32 32">
<path d="M9.755 11.589h-9.892c-0.304 0-0.55 0.236-0.55 0.527v3.164c0 0.292 0.246 0.527 0.55 0.527h0.55v12.127c0 0.292 0.246 0.527 0.55 0.527h7.694c0.304 0 0.55-0.236 0.55-0.527v-12.127h0.55c0.304 0 0.55-0.236 0.55-0.527v-3.164c0-0.292-0.246-0.527-0.55-0.527zM3.71 21.607v-1.055h3.297v-1.055h-3.297v-1.055h4.396v6.854h-4.396v-2.636h1.099v-1.055h-1.099zM8.106 17.389h-4.946c-0.304 0-0.55 0.236-0.55 0.527v7.909c0 0.292 0.246 0.527 0.55 0.527h4.946v1.055h-6.595v-11.6h6.595v1.582zM9.205 14.753h-8.793v-2.109h8.793v2.109z"></path>
<path d="M17.036 11.688v-3.855c0-0.3-0.246-0.543-0.55-0.543h-0.55v-2.714h1.099v-1.086h-6.045v1.086h3.847v2.714h-0.55c-0.304 0-0.55 0.243-0.55 0.543v3.855c-1.252 0.252-2.198 1.348-2.198 2.659v13.571c0 0.3 0.246 0.543 0.55 0.543h6.595c0.304 0 0.55-0.243 0.55-0.543v-13.571c0-1.31-0.946-2.407-2.198-2.659zM14.838 8.376h1.099v3.257h-1.099v-3.257zM14.289 12.719h2.198c0.909 0 1.649 0.731 1.649 1.629v0.543h-5.496v-0.543c0-0.898 0.74-1.629 1.649-1.629zM18.135 25.204h-5.496v-1.086h2.198v-1.086h-2.198v-7.057h5.496v9.228zM12.64 27.376v-1.086h5.496v1.086h-5.496z"></path>
<path d="M31.084 10.914h-9.274c-0.285 0-0.515 0.238-0.515 0.532v16.484c0 0.294 0.23 0.532 0.515 0.532h9.274c0.285 0 0.515-0.238 0.515-0.532v-16.484c0-0.294-0.23-0.532-0.515-0.532zM30.569 27.398h-8.243v-15.42h8.243v15.42z"></path>
<path d="M7.557 21.712h-1.374v0.675h1.374v-0.675z"></path>
<path d="M17.174 23.062h-1.374v1.35h1.374v-1.35z"></path>
<path d="M15.456 21.712c1.326 0 2.404-1.059 2.404-2.362s-1.078-2.362-2.404-2.362c-1.326 0-2.404 1.059-2.404 2.362s1.078 2.362 2.404 2.362zM15.456 18.169c0.663 0 1.202 0.53 1.202 1.181s-0.539 1.181-1.202 1.181c-0.663 0-1.202-0.53-1.202-1.181s0.539-1.181 1.202-1.181z"></path>
<path d="M25.159 16.313h2.576c0.994 0 1.803-0.757 1.803-1.687s-0.809-1.687-1.803-1.687h-2.576c-0.994 0-1.803 0.757-1.803 1.687s0.809 1.687 1.803 1.687zM28.508 14.626c0 0.399-0.347 0.723-0.773 0.723h-0.773v-1.446h0.773c0.426 0 0.773 0.324 0.773 0.723zM25.159 13.903h0.773v1.446h-0.773c-0.426 0-0.773-0.324-0.773-0.723s0.347-0.723 0.773-0.723z"></path>
<path d="M25.159 21.712h2.576c0.994 0 1.803-0.908 1.803-2.025s-0.809-2.025-1.803-2.025h-2.576c-0.994 0-1.803 0.908-1.803 2.025s0.809 2.025 1.803 2.025zM28.508 19.688c0 0.478-0.347 0.868-0.773 0.868h-0.773v-1.735h0.773c0.426 0 0.773 0.389 0.773 0.868zM25.159 18.82h0.773v1.735h-0.773c-0.426 0-0.773-0.389-0.773-0.868s0.347-0.868 0.773-0.868z"></path>
<path d="M25.159 26.437h2.576c0.994 0 1.803-0.908 1.803-2.025s-0.809-2.025-1.803-2.025h-2.576c-0.994 0-1.803 0.908-1.803 2.025s0.809 2.025 1.803 2.025zM28.508 24.412c0 0.478-0.347 0.868-0.773 0.868h-0.773v-1.735h0.773c0.426 0 0.773 0.389 0.773 0.868zM25.159 23.544h0.773v1.735h-0.773c-0.426 0-0.773-0.389-0.773-0.868s0.347-0.868 0.773-0.868z"></path>
</symbol>
<symbol id="crown-icon" viewBox="0 0 32 32">
<path d="M29.687 10.326c-0.253-0.229-0.559-0.376-0.883-0.425s-0.655 0.003-0.954 0.15l-6.312 3.080c-0.028 0.017-0.058 0.027-0.090 0.031s-0.063 0-0.094-0.010c-0.030-0.010-0.058-0.027-0.083-0.049s-0.044-0.050-0.059-0.081l-3.688-7.287c-0.15-0.301-0.37-0.553-0.638-0.728s-0.575-0.268-0.887-0.268c-0.312 0-0.618 0.092-0.887 0.268s-0.489 0.427-0.638 0.728l-3.687 7.287c-0.014 0.031-0.034 0.059-0.059 0.081s-0.052 0.039-0.083 0.049c-0.030 0.010-0.062 0.014-0.094 0.010s-0.062-0.014-0.090-0.031l-6.313-3.080c-0.298-0.149-0.628-0.202-0.953-0.155s-0.631 0.194-0.883 0.423-0.442 0.532-0.546 0.873c-0.104 0.342-0.119 0.708-0.043 1.059l3.188 14.891c0.054 0.252 0.154 0.489 0.293 0.697s0.316 0.383 0.519 0.513c0.267 0.18 0.574 0.275 0.888 0.275 0.16-0.002 0.32-0.025 0.475-0.069 5.827-1.773 11.983-1.778 17.812-0.014 0.227 0.072 0.466 0.093 0.701 0.061s0.461-0.116 0.666-0.247 0.383-0.306 0.524-0.516c0.141-0.209 0.242-0.447 0.297-0.701l3.175-14.891c0.079-0.348 0.067-0.713-0.034-1.054s-0.289-0.643-0.541-0.871zM28.812 11.866l-3.188 14.891c-0.017 0.072-0.057 0.136-0.112 0.179-0.062 0.033-0.132 0.043-0.2 0.028-6.094-1.852-12.531-1.852-18.625 0-0.033 0.010-0.067 0.013-0.101 0.008s-0.066-0.017-0.096-0.037c-0.029-0.019-0.055-0.045-0.075-0.076s-0.034-0.065-0.041-0.102l-3.188-14.891c-0.007-0.041-0.006-0.083 0.003-0.124s0.026-0.079 0.050-0.111c0.024-0.033 0.054-0.059 0.088-0.078s0.071-0.029 0.109-0.030l0.1 0.028 6.325 3.094c0.399 0.198 0.851 0.222 1.266 0.069s0.762-0.472 0.972-0.894l3.688-7.287c0.020-0.043 0.050-0.080 0.088-0.106s0.081-0.039 0.125-0.039c0.044 0 0.087 0.014 0.125 0.039s0.068 0.062 0.088 0.106l3.687 7.287c0.21 0.422 0.557 0.742 0.972 0.894s0.867 0.128 1.266-0.069l6.325-3.094c0.043-0.021 0.090-0.028 0.137-0.021s0.090 0.029 0.126 0.062c0.037 0.032 0.064 0.075 0.080 0.124s0.018 0.101 0.008 0.151zM20.75 22.316c-0.021 0.203-0.109 0.391-0.247 0.527s-0.317 0.213-0.503 0.215h-0.075c-2.61-0.289-5.24-0.289-7.85 0-0.197 0.023-0.395-0.041-0.549-0.177s-0.254-0.335-0.276-0.552c-0.018-0.218 0.043-0.435 0.169-0.605s0.308-0.278 0.506-0.302c2.709-0.316 5.441-0.316 8.15 0 0.196 0.024 0.375 0.131 0.501 0.297s0.188 0.38 0.174 0.596z"></path>
</symbol>
<symbol id="facebook-icon" viewBox="0 0 32 32">
<path d="M24.261 1.245c-1.484-0.157-2.976-0.234-4.468-0.23-4.948 0-8.023 3.151-8.023 8.224v3.444h-4.156c-0.195 0-0.382 0.077-0.52 0.215s-0.215 0.325-0.215 0.52v5.664c0 0.195 0.077 0.382 0.215 0.52s0.325 0.215 0.52 0.215h4.156v11.358c0 0.195 0.078 0.382 0.215 0.52s0.325 0.215 0.52 0.215h5.853c0.195 0 0.382-0.077 0.52-0.215s0.215-0.325 0.215-0.52v-11.358h4.143c0.179 0 0.351-0.065 0.485-0.183s0.221-0.28 0.244-0.457l0.731-5.664c0.014-0.104 0.005-0.209-0.026-0.31s-0.082-0.193-0.151-0.271c-0.069-0.079-0.154-0.142-0.25-0.185s-0.199-0.065-0.304-0.065h-4.874v-2.882c0-1.427 0.287-2.023 2.072-2.023h3c0.195 0 0.382-0.077 0.52-0.215s0.215-0.325 0.215-0.52v-5.069c0-0.179-0.065-0.351-0.183-0.485s-0.28-0.221-0.457-0.244zM23.43 6.306l-2.266 0.001c-3.174 0-3.541 1.995-3.541 3.494v3.619c0 0.195 0.077 0.382 0.215 0.52s0.324 0.216 0.519 0.216h4.776l-0.543 4.193h-4.231c-0.195 0-0.382 0.078-0.52 0.215s-0.215 0.325-0.215 0.52v11.355h-4.381v-11.355c0-0.195-0.078-0.382-0.215-0.52s-0.325-0.215-0.52-0.215h-4.155v-4.193h4.155c0.195 0 0.382-0.077 0.52-0.215s0.215-0.325 0.215-0.52v-4.181c0-4.228 2.45-6.753 6.552-6.753 1.484 0 2.825 0.081 3.637 0.152v3.668z"></path>
</symbol>
<symbol id="inst-icon" viewBox="0 0 32 32">
<path d="M16 8.923c-1.4 0-2.768 0.415-3.932 1.193s-2.071 1.883-2.607 3.176c-0.536 1.293-0.676 2.716-0.403 4.089s0.947 2.634 1.937 3.623c0.99 0.99 2.251 1.664 3.623 1.937s2.796 0.133 4.089-0.403c1.293-0.536 2.398-1.443 3.176-2.607s1.193-2.532 1.193-3.932c0-1.877-0.746-3.677-2.073-5.004s-3.127-2.073-5.004-2.073zM16 21.231c-1.035 0-2.046-0.307-2.906-0.882s-1.531-1.392-1.927-2.347-0.499-2.008-0.298-3.022c0.202-1.015 0.7-1.947 1.432-2.678s1.664-1.23 2.678-1.432c1.015-0.202 2.066-0.098 3.022 0.298s1.773 1.066 2.347 1.927c0.575 0.86 0.882 1.871 0.882 2.906-0.004 1.386-0.556 2.714-1.537 3.694s-2.308 1.532-3.694 1.537zM22.769 0.923h-13.538c-2.203 0-4.316 0.875-5.874 2.433s-2.433 3.671-2.433 5.874v13.538c0 2.203 0.875 4.316 2.433 5.874s3.671 2.433 5.874 2.433h13.538c2.203 0 4.316-0.875 5.874-2.433s2.433-3.671 2.433-5.874v-13.538c0-2.203-0.875-4.316-2.433-5.874s-3.671-2.433-5.874-2.433zM29.231 22.769c0 1.714-0.681 3.357-1.893 4.569s-2.855 1.893-4.569 1.893h-13.538c-1.714 0-3.357-0.681-4.569-1.893s-1.893-2.855-1.893-4.569v-13.538c0-1.714 0.681-3.357 1.893-4.569s2.855-1.893 4.569-1.893h13.538c1.714 0 3.357 0.681 4.569 1.893s1.893 2.855 1.893 4.569v13.538zM25.538 8c0 0.304-0.090 0.602-0.259 0.855s-0.409 0.45-0.69 0.567c-0.281 0.116-0.591 0.147-0.889 0.088s-0.573-0.206-0.788-0.421-0.362-0.489-0.421-0.788c-0.059-0.298-0.029-0.608 0.088-0.889s0.314-0.521 0.567-0.69c0.253-0.169 0.551-0.259 0.855-0.259 0.408 0 0.799 0.162 1.088 0.451s0.451 0.68 0.451 1.088z"></path>
</symbol>
<symbol id="phone-icon" viewBox="0 0 32 32">
<path fill="#011c44" style="fill: var(--color1, #011c44)" d="M27.655 22.957l-0.173-0.216c-1.372-1.735-2.519-2.637-3.503-2.756-0.851-0.116-1.673 0.472-2.548 1.077l-0.935 0.584c-0.112 0.056-0.223 0.101-0.327 0.132-0.547 0.155-1.927 0.245-2.708-0.469-0.909-0.832-2.32-2.355-3.417-3.685-1.048-1.377-2.2-3.095-2.801-4.176-0.508-0.916-0.083-2.197 0.201-2.672 0.056-0.093 0.129-0.185 0.211-0.276l0.824-0.761c0.012-0.012 0.017-0.027 0.028-0.037 0.008-0.008 0.021-0.005 0.031-0.012 0.744-0.628 1.513-1.275 1.619-2.105 0.124-0.976-0.483-2.296-1.857-4.029l-0.168-0.216c-0.851-1.091-2.137-2.74-3.985-2.468-0.727 0.108-1.376 0.356-2.045 0.776-0.007 0.004-0.011 0.012-0.016 0.016s-0.012 0.004-0.017 0.008l-0.932 0.691c-0.009 0.005-0.015 0.017-0.024 0.025-0.007 0.007-0.017 0.008-0.025 0.015-0.108 0.091-0.216 0.184-0.323 0.28-0.945 0.843-2.992 3.289-1.596 7.815 0.901 2.923 2.76 6.333 5.388 9.883l-0.025 0.021 1.449 1.805 0.012-0.009c2.849 3.371 5.749 5.976 8.407 7.553 1.773 1.053 3.323 1.401 4.597 1.401 1.677 0 2.879-0.603 3.481-0.995l0.379-0.253c0.043-0.029 0.073-0.071 0.104-0.108l0.825-0.621c0.009-0.008 0.015-0.019 0.024-0.027 0.004-0.004 0.011-0.003 0.016-0.007 0.587-0.536 0.993-1.097 1.276-1.763 0.732-1.705-0.579-3.339-1.445-4.42zM28.12 26.959c-0.22 0.517-0.541 0.957-1.005 1.384l-1.228 0.924c-1.112 0.723-3.489 1.616-6.943-0.435-2.657-1.577-5.583-4.244-8.461-7.712l-0.779-0.984c-2.711-3.595-4.617-7.037-5.517-9.955-1.169-3.793 0.304-5.828 1.291-6.707 0.1-0.091 0.2-0.175 0.299-0.259l0.004-0.004 0.895-0.663c0.544-0.344 1.048-0.536 1.628-0.624 1.239-0.187 2.247 1.12 2.987 2.069l0.173 0.22c1.536 1.937 1.684 2.859 1.636 3.235-0.053 0.417-0.688 0.952-1.248 1.423l-0.079 0.067c-0.003 0.003-0.004 0.007-0.007 0.009-0.004 0.003-0.008 0.004-0.012 0.007l-0.852 0.788c-0.005 0.005-0.008 0.012-0.013 0.019s-0.016 0.009-0.021 0.016c-0.132 0.148-0.245 0.296-0.337 0.449-0.479 0.801-0.931 2.457-0.217 3.739 0.623 1.12 1.808 2.889 2.897 4.319 1.139 1.381 2.591 2.949 3.532 3.809 0.705 0.644 1.687 0.86 2.536 0.86 0.455 0 0.872-0.063 1.188-0.152 0.167-0.048 0.339-0.117 0.516-0.204 0.011-0.005 0.016-0.015 0.027-0.021 0.005-0.003 0.013-0.001 0.019-0.005l0.989-0.619c0.032-0.021 0.053-0.049 0.080-0.076l0.012 0.013c0.609-0.423 1.304-0.919 1.739-0.847 0.385 0.047 1.26 0.417 2.799 2.36l0.177 0.223c0.749 0.935 1.776 2.215 1.297 3.333z"></path>
</symbol>
<symbol id="icon-Star-1" viewBox="0 0 32 32">
<path fill="#011f4a" style="fill: var(--color1, #011f4a)" d="M6.693 0l10.657 10.184 14.321-3.491-10.184 10.657 3.491 14.321-10.657-10.184-14.321 3.491 10.184-10.657-3.491-14.321z"></path>
</symbol>
<symbol id="icon-Star-2" viewBox="0 0 32 32">
<path fill="#2b7fff" style="fill: var(--color2, #2b7fff)" d="M24.979 0l-3.491 14.321 10.184 10.657-14.321-3.491-10.657 10.184 3.491-14.321-10.184-10.657 14.321 3.491 10.657-10.184z"></path>
</symbol>
<symbol id="icon-Star-3" viewBox="0 0 30 32">
<path fill="#747272" style="fill: var(--color3, #747272)" d="M8.965 1.136l8.153 9.994 12.812-1.483-9.994 8.153 1.483 12.813-8.153-9.994-12.813 1.483 9.994-8.153-1.483-12.813z"></path>
</symbol>
<symbol id="icon-Star-1" viewBox="0 0 32 32">
<path d="M6.693 0l10.657 10.184 14.321-3.491-10.184 10.657 3.491 14.321-10.657-10.184-14.321 3.491 10.184-10.657-3.491-14.321z"></path>
</symbol>
<symbol id="icon-menu" viewBox="0 0 46 32">
<path d="M45.714 29.726c0 1.257-1.019 2.274-2.274 2.274h-18.309c-1.256 0-2.274-1.018-2.274-2.274s1.018-2.274 2.274-2.274h18.309c1.257 0 2.274 1.017 2.274 2.274zM45.714 16c0 1.257-1.019 2.274-2.274 2.274h-41.166c-1.256 0-2.274-1.018-2.274-2.274s1.018-2.274 2.274-2.274h41.166c1.257 0 2.274 1.019 2.274 2.274zM43.44 4.549c1.256 0 2.274-1.018 2.274-2.274s-1.018-2.274-2.274-2.274v0h-27.451c-1.256 0-2.274 1.018-2.274 2.274s1.018 2.274 2.274 2.274v0h27.451z"></path>
</symbol>
</defs>
</svg>
